<svg xmlns="http://www.w3.org/2000/svg" viewBox="0 0 351.46 40.92"><g id="Layer_1" data-name="Layer 1"><path d="M72.25,191.39h-5l-.12-16.55-8.89,16.8H56.49l-9-16.51-.09,16.26h-5l.82-28.92h2.25l12,21,11.67-21h2.26Z" transform="translate(-20 -162.1)" fill="#ef4136"/><path d="M86,191.39H80.65l13.52-29h1.15l13.51,29h-5.44l-2.54-5.73H88.48Zm4.3-9.79h8.77l-4.39-9.91Z" transform="translate(-20 -162.1)" fill="#ef4136"/><path d="M141,176.28v12.33a19.7,19.7,0,0,1-11.15,3.27c-9.74,0-16.22-6.39-16.22-14.91,0-8.31,7-14.87,15.53-14.87a20.41,20.41,0,0,1,10.16,2.34l-1.77,4.34A19.2,19.2,0,0,0,130,166.9c-6.76,0-10.9,4.26-10.9,10.16s4.43,10,10.41,10a19.27,19.27,0,0,0,6.55-1.15v-5.12h-8v-4.54Z" transform="translate(-20 -162.1)" fill="#ef4136"/><path d="M151.83,162.6h5.08v28.79h-5.08Z" transform="translate(-20 -162.1)" fill="#ef4136"/><path d="M168.45,162.43h1.6L187.86,181V162.6h5.08v29h-1.35l-18.06-18.07v17.86h-5.08Z" transform="translate(-20 -162.1)" fill="#ef4136"/><path d="M206.24,191.39h-5.32l13.51-29h1.15l13.52,29h-5.45l-2.54-5.73H208.74Zm4.3-9.79h8.77l-4.39-9.91Z" transform="translate(-20 -162.1)" fill="#ef4136"/><path d="M230.17,162.6h24.2v4.67h-9.46v24.12h-5.12V167.27h-9.62Z" transform="translate(-20 -162.1)" fill="#ef4136"/><path d="M263.1,162.6h5.08v28.79H263.1Z" transform="translate(-20 -162.1)" fill="#ef4136"/><path d="M292.36,162.1c8.93,0,15.4,6.27,15.4,14.87s-6.59,14.87-15.4,14.87S277,185.49,277,177C277,168.66,283.72,162.1,292.36,162.1Zm0,25.28a10,10,0,0,0,9.91-10.32c0-5.9-4.14-10.37-9.91-10.37s-9.91,4.47-9.91,10.37A10,10,0,0,0,292.4,187.38Z" transform="translate(-20 -162.1)" fill="#ef4136"/><path d="M316.58,163.27h1.59L336,181.82V163.43h5.08v29h-1.35l-18.07-18.06v17.86h-5.07Z" transform="translate(-20 -162.1)" fill="#ef4136"/><path d="M359.9,192.72a18.62,18.62,0,0,1-9.42-2.75l1.76-4.58a14.63,14.63,0,0,0,7.82,2.58c3.4,0,5-1.68,5-3.53s-1.07-3.07-6.27-5c-5.61-2-7.54-4.71-7.54-8.15,0-4.34,3.53-8.36,9.67-8.36a16.92,16.92,0,0,1,7.95,2l-1.64,4.5a14.45,14.45,0,0,0-6.43-1.92c-3,0-4.43,1.68-4.43,3.68s1.56,3,5.62,4.47c6.42,2.5,8.27,5,8.27,8.8C370.22,189.57,366.33,192.72,359.9,192.72Z" transform="translate(-20 -162.1)" fill="#ef4136"/><text transform="translate(192.92 39.14) scale(0.96 1)" font-size="6.38" fill="#231f20" font-family="TrendSansOne, Trend Sans" letter-spacing="-0.06em">JOURNAL OF CROSS-CULTURAL IMAGE STUDIES</text><text transform="translate(15.04 39.33) scale(0.96 1)" font-size="6.38" fill="#231f20" font-family="TrendSansOne, Trend Sans" letter-spacing="-0.06em">REVUE D’ÉTUDES INTERCULTURELLES DE L’IMAGE</text><rect x="185.76" y="36.23" width="1.81" height="1.8" fill="#ef4136"/><polygon points="0.23 10.3 0.11 10.3 0.11 10.11 6.92 0.23 7.09 0.35 0.23 10.3" fill="#ef4136"/><polygon points="5.38 10.11 5.13 10.09 12.07 0.38 12.23 0.55 5.38 10.11" fill="#ef4136"/><path d="M26.92,162.32h5.31v29.47H26.92Z" transform="translate(-20 -162.1)" fill="#ef4136"/><path d="M20.11,172.17h5.3v29.46h-5.3Z" transform="translate(-20 -162.1)" fill="#010101"/><polygon points="0.23 39.54 0 39.53 0 39.41 6.92 29.47 7.08 29.59 0.23 39.54" fill="#ef4136"/><polygon points="5.41 39.53 5.15 39.54 12.07 29.55 12.23 29.68 5.41 39.53" fill="#ef4136"/></g></svg>